<?xml version="1.0" standalone="no"?>
<!DOCTYPE svg PUBLIC "-//W3C//DTD SVG 20010904//EN"
        "http://www.w3.org/TR/2001/REC-SVG-20010904/DTD/svg10.dtd">
<svg version="1.0" xmlns="http://www.w3.org/2000/svg"
     width="1493.000000pt" height="1493.000000pt" viewBox="0 0 1493.000000 1493.000000"
     preserveAspectRatio="xMidYMid meet">
    <metadata>
        Created by potrace 1.14, written by Peter Selinger 2001-2017
    </metadata>
    <g transform="translate(0.000000,1493.000000) scale(0.100000,-0.100000)"
       fill="#000000" stroke="none">
        <path d="M4915 14905 c-92 -10 -394 -10 -2580 0 -665 3 -1220 3 -1232 0 -13
-3 -23 -11 -23 -19 0 -12 -46 -58 -111 -111 -26 -21 -146 -95 -154 -95 -25 0
-219 -152 -300 -235 -53 -54 -155 -172 -155 -179 0 -4 -18 -31 -40 -61 -22
-30 -40 -57 -40 -60 0 -3 -19 -35 -41 -71 -89 -140 -123 -274 -98 -383 4 -20
6 -37 3 -40 -2 -2 -20 1 -39 6 -68 21 -64 108 -67 -1399 -3 -1131 -5 -1358
-17 -1371 -12 -15 -11 -17 9 -17 l21 0 0 -4797 c-1 -2639 2 -4845 5 -4903 l7
-104 66 -86 c36 -47 81 -114 98 -150 55 -110 220 -263 358 -332 33 -17 78 -45
100 -62 22 -18 69 -50 103 -72 35 -21 76 -48 90 -60 15 -11 70 -31 122 -44 52
-13 102 -29 110 -36 8 -6 40 -20 70 -30 30 -11 61 -24 67 -31 7 -6 30 -14 52
-18 l40 -7 3 -51 3 -52 2380 1 c1309 0 2414 4 2455 7 85 7 2856 9 2910 2 94
-12 430 -14 2415 -15 1674 0 2151 3 2189 13 53 13 52 12 76 105 11 43 15 46
85 72 11 4 37 15 58 24 21 9 42 16 47 16 5 0 29 13 52 29 24 16 76 50 116 76
40 26 78 52 85 58 6 7 40 33 75 59 73 53 214 188 288 274 60 70 156 211 209
309 21 39 58 101 84 139 l46 69 -2 2936 c-4 3784 -4 4619 -1 7262 l3 2186 -34
29 c-73 61 -98 96 -176 249 -28 55 -79 145 -114 200 -34 55 -68 108 -74 119
-7 10 -31 39 -53 65 -23 25 -81 90 -128 143 -48 54 -135 139 -194 190 -145
127 -215 195 -208 206 18 30 -115 58 -153 33 -10 -6 -22 -6 -34 0 -34 19 -169
21 -1352 20 -3542 -1 -4613 -1 -5935 1 -893 2 -1490 -1 -1545 -7z"/>
    </g>
</svg>
